<svg width="40" height="46" viewBox="0 0 40 46" fill="none" xmlns="http://www.w3.org/2000/svg">
<g id="solar:cart-bold">
<path id="Vector" fill-rule="evenodd" clip-rule="evenodd" d="M14.342 6.17089C14.7944 5.05064 15.7704 4.27216 16.8984 4.27216H23.3621C24.49 4.27216 25.4645 5.05064 25.9185 6.17089C27.0222 6.18228 27.8835 6.24114 28.6527 6.59431C29.5709 7.01634 30.3695 7.73357 30.957 8.66393C31.5501 9.6019 31.8296 10.8038 32.211 12.4576L33.41 17.626L33.8625 19.2228L33.9013 19.2798C35.3572 21.4709 34.664 24.7291 33.2775 31.2437C32.3952 35.3886 31.9557 37.4601 30.6403 38.6677C29.3249 39.8734 27.507 39.8734 23.8711 39.8734H16.3893C12.7535 39.8734 10.9356 39.8734 9.62018 38.6677C8.3048 37.4601 7.86365 35.3886 6.98296 31.2437C5.59649 24.7291 4.90325 21.4709 6.35921 19.2798L6.39799 19.2228L6.85046 17.626L8.04948 12.4576C8.43246 10.8038 8.71202 9.6 9.30345 8.66203C9.89121 7.73237 10.6898 7.01582 11.6078 6.59431C12.377 6.24114 13.2366 6.18038 14.342 6.17089ZM14.3452 9.02469C13.2754 9.03798 12.8456 9.08545 12.4901 9.24874C11.9956 9.47598 11.5655 9.86224 11.249 10.3633C10.9646 10.8133 10.7966 11.4418 10.328 13.4677L9.40687 17.4342C11.0551 17.0886 13.3077 17.0886 16.3877 17.0886H23.8711C26.9527 17.0886 29.2037 17.0886 30.852 17.4304L29.9325 13.4639C29.4639 11.438 29.2959 10.8095 29.0114 10.3595C28.695 9.85844 28.2649 9.47218 27.7704 9.24494C27.4149 9.08165 26.9851 9.03418 25.9153 9.02089C25.6859 9.58832 25.3242 10.0677 24.8723 10.4034C24.4204 10.7392 23.8968 10.9175 23.3621 10.9177H16.8984C16.3639 10.9177 15.8404 10.7396 15.3885 10.4042C14.9366 10.0689 14.5749 9.59176 14.3452 9.02469Z" fill="#F0EFEF"/>
</g>
</svg>
