<svg width="29" height="37" viewBox="0 0 29 37" fill="none" xmlns="http://www.w3.org/2000/svg">
<g id="Group 21">
<path id="Vector" d="M28.5409 26.4861C26.8098 24.3925 24.7092 22.7217 22.3712 21.579C20.0332 20.4362 17.5085 19.8463 14.9562 19.8463C12.4039 19.8463 9.87927 20.4362 7.54128 21.579C5.20329 22.7217 3.10261 24.3925 1.37156 26.4861C1.1043 26.816 0.954801 27.2439 0.951416 27.6886V34.9038C0.957081 35.378 1.12983 35.8307 1.43226 36.1638C1.7347 36.4969 2.14249 36.6836 2.56736 36.6836H27.3451C27.7737 36.6836 28.1847 36.4935 28.4877 36.1552C28.7908 35.817 28.961 35.3582 28.961 34.8798V27.6646C28.9524 27.2281 28.8033 26.8098 28.5409 26.4861Z" fill="#F0EFEF"/>
<path id="Vector_2" d="M14.9561 17.443C19.1209 17.443 22.4971 13.6743 22.4971 9.02533C22.4971 4.37635 19.1209 0.607605 14.9561 0.607605C10.7913 0.607605 7.41504 4.37635 7.41504 9.02533C7.41504 13.6743 10.7913 17.443 14.9561 17.443Z" fill="#F0EFEF"/>
</g>
</svg>
